<svg width="100" height="104" viewBox="0 0 100 104" fill="none" xmlns="http://www.w3.org/2000/svg">
<g clip-path="url(#clip0)">
<path d="M25.2915 75.6381C30.3377 75.6381 59.5314 75.6381 64.5717 75.6381C64.7662 71.0563 64.4454 63.4544 61.6913 59.8363L61.5917 59.7063L55.5733 56.6156C55.704 56.1647 55.7683 55.7517 55.7941 55.4481C55.8239 55.0838 55.7748 54.7414 55.6476 54.4314C54.6547 52.0013 52.5537 50.7228 51.3981 50.1777C51.7502 49.452 51.9773 48.6729 52.087 47.8768C52.7411 47.6883 53.2673 47.158 53.4399 46.4506L54.1423 43.5316C54.2668 43.0166 54.1887 42.4826 53.9211 42.0284C53.806 41.8326 53.6571 41.6677 53.4901 41.5268C55.4706 36.9252 52.1534 32.5863 51.9727 32.3579C48.3801 28.3849 43.8416 29.1278 43.6017 29.1718C37.052 30.5746 34.5245 35.7088 35.9514 41.7302C35.5287 42.2092 35.3512 42.8765 35.5079 43.5309L36.2138 46.4531C36.385 47.1553 36.907 47.6837 37.5566 47.8744C37.757 49.3323 38.3603 50.6509 39.2464 51.7136V54.0277C29.8476 58.9507 35.8029 55.8099 28.2708 59.7074C28.2559 59.7801 24.7366 63.6058 25.2597 74.9453L25.2915 75.6381ZM63.2068 74.1836H56.7421V71.4059L61.0178 61.3941C63.1598 65.0305 63.2393 71.9737 63.2068 74.1836ZM54.3836 55.3245C54.1342 58.2558 52.5626 57.3698 51.5924 59.6282C50.8293 58.7699 50.5998 57.7408 50.8049 56.6392C51.1754 54.6164 49.9683 54.0157 50.2667 51.8903L50.3119 51.8416V51.8348C50.3375 51.8055 50.5756 51.5156 50.6445 51.424C53.2022 52.5644 54.4336 54.6854 54.3836 55.3245ZM40.6624 53.0206C41.8498 53.8629 43.2831 54.3608 44.8248 54.3608C46.2767 54.3608 47.6556 53.9287 48.8379 53.133C49.0018 54.8038 49.6403 55.1383 49.4137 56.3679C49.3712 56.5961 49.3483 56.821 49.3346 57.0422L44.9319 62.1175L39.3039 55.6276L40.6624 54.902V53.0206H40.6624ZM38.8924 46.8093V43.9953C38.8924 42.9591 38.8924 38.8481 38.8924 39.0511C39.5776 37.7549 40.5117 36.8149 41.6726 36.2514C44.7817 38.0507 48.3605 40.736 50.7606 43.4386C50.7583 46.8803 50.7701 46.8896 50.7477 47.1724L50.7462 47.1904C50.5589 50.3156 48.0465 52.9062 44.8248 52.9062C41.6926 52.9062 39.0922 50.3909 38.9042 47.1594C38.8945 47.0436 38.8924 46.9275 38.8924 46.8093ZM38.0157 56.3295L44.9319 64.3043L49.5753 58.9515C49.6814 59.2641 49.8303 59.5593 50.0005 59.8446L44.932 66.3277L37.3737 56.6591L38.0157 56.3295ZM52.1766 45.6388V43.392C52.2389 43.319 52.7667 42.6999 52.7045 42.7729C52.7337 43.9105 52.8538 42.5678 52.1766 45.6388ZM43.8637 30.6012C44.1446 30.6191 47.9188 30.014 50.9017 33.3078C51.0191 33.4586 53.4473 36.6585 52.4717 40.159C52.1379 38.6014 51.5559 36.6053 50.6362 35.6527L49.6308 36.6768C50.539 37.6176 51.1354 40.4825 51.3626 41.9677C47.1971 37.5094 41.8237 34.6876 41.75 34.6399C41.4805 34.8113 39.2067 35.2535 37.5552 38.5365L37.4764 38.6935V41.1047C37.4055 41.1055 37.1973 41.1078 37.2682 41.107C36.2189 35.9255 38.2283 31.8093 43.8637 30.6012ZM37.119 42.6033L37.4764 44.0841V45.6406L36.8824 43.1818C36.7953 42.8153 37.0607 42.6763 37.119 42.6033ZM36.0778 57.3245L44.9319 68.6509L50.9224 60.9874C51.5741 61.5839 51.8874 61.6685 53.2691 62.3952L52.8031 60.7784C52.6848 60.3679 53.1529 59.7095 53.4357 59.4069C54.0669 59.0567 54.593 58.5573 54.9866 57.9407L59.8742 60.451L55.3261 71.1012V74.1836H34.5371V71.1008L29.9869 60.452L36.0778 57.3245ZM28.8447 61.3973L33.1211 71.4062V74.1836H26.6564C26.6239 71.9744 26.7041 65.0348 28.8447 61.3973Z" fill="#FF6B09"/>
</g>
<path d="M98.7679 15V1H1V103H98.7679V89" stroke="#FF6B09" stroke-width="2"/>
<defs>
<clipPath id="clip0">
<rect width="38.9407" height="48" fill="white" transform="translate(25.442 28)"/>
</clipPath>
</defs>
</svg>
