<svg width="100" height="104" viewBox="0 0 100 104" fill="none" xmlns="http://www.w3.org/2000/svg">
<g clip-path="url(#clip0)">
<path d="M25.2588 48.6131C25.2588 49.1484 24.4643 49.1484 24.4643 48.6131C24.4643 37.2311 33.4894 28 44.6173 28C55.75 28 64.7703 37.2311 64.7703 48.6131C64.7703 49.1484 63.9806 49.1484 63.9806 48.6131C63.9806 40.9197 51.6204 40.9148 51.6204 48.6131C51.6204 49.1484 50.8069 49.1484 50.8069 48.6131C50.8069 40.9392 38.4277 40.9392 38.4277 48.6131C38.4277 49.1484 37.6142 49.1484 37.6142 48.6131C37.6142 40.9538 25.2588 40.9002 25.2588 48.6131ZM37.6856 45.6253C37.8996 41.1971 38.58 37.2263 39.5695 34.1946C40.3593 31.7859 41.3584 29.9562 42.4907 28.9294C33.9937 29.8783 27.1143 36.4672 25.5776 45.0122C28.5035 40.6959 35.2592 41.0414 37.6856 45.6253ZM50.7451 45.4258C50.5262 41.1679 49.8649 37.3577 48.9134 34.4526C46.4585 26.9343 42.7761 26.9343 40.3212 34.4526C39.3697 37.3577 38.7132 41.1679 38.4896 45.4258C41.13 40.837 48.1046 40.837 50.7451 45.4258ZM63.6571 45.0122C62.1251 36.4672 55.2457 29.8783 46.7439 28.9294C47.881 29.9562 48.8753 31.7859 49.6651 34.1946C50.6547 37.2263 51.335 41.1971 51.5491 45.6253C53.9897 41.017 60.7645 40.7445 63.6571 45.0122Z" fill="#FF6B09"/>
<path d="M41.9721 58.045V53.8592C41.2347 54.3605 40.6543 55.1344 40.6543 56.0786C40.6543 56.9985 41.2442 57.6069 41.9721 58.045ZM42.7666 59.3445C41.3536 58.6826 39.8645 57.9087 39.8645 56.0786C39.8645 54.1902 41.268 53.2459 42.7666 52.5402V59.3445Z" fill="#FF6B09"/>
<path d="M47.2625 64.36V68.5936C48.0095 68.0875 48.5946 67.309 48.5946 66.3649C48.5946 65.4355 47.9952 64.8077 47.2625 64.36ZM46.4728 63.0559C47.8905 63.7274 49.3892 64.5255 49.3892 66.3649C49.3892 68.2579 47.9762 69.2019 46.4728 69.9026V63.0559Z" fill="#FF6B09"/>
<path d="M47.2626 49.0948C50.5167 49.8637 53.8613 52.3553 53.8613 56.078C53.8613 59.2654 48.5947 59.1486 48.5947 56.078C48.5947 55.1291 48.0095 54.3505 47.2626 53.8492V59.8056C50.2741 60.8129 53.8708 62.6183 53.8708 66.3654C53.8708 70.0929 50.5262 72.5796 47.2626 73.3436C47.2483 76.8912 41.9817 76.8863 41.9721 73.3388C40.1167 72.9008 38.5039 72.0151 37.3383 70.8423C36.1156 69.6063 35.3924 68.054 35.3924 66.3654C35.3924 63.2266 40.6543 63.2266 40.6543 66.3654C40.6543 67.3045 41.2347 68.0783 41.9721 68.5795V62.628C38.9844 61.6402 35.3687 59.7812 35.3687 56.0683C35.3687 52.3407 38.7132 49.854 41.9721 49.09C41.9864 45.5424 47.253 45.5473 47.2626 49.0948ZM42.7667 49.1046V49.7518C39.6695 50.3796 36.1584 52.4088 36.1584 56.0683C36.1584 59.5866 40.012 61.1633 42.7667 62.0343V69.8983C41.2775 69.2024 39.8645 68.2632 39.8645 66.3654C39.8645 64.2923 36.1822 64.2923 36.1822 66.3654C36.1822 67.8301 36.8197 69.1829 37.8949 70.2633C39.2603 71.6453 40.916 72.3022 42.7667 72.6769V73.329C42.7667 75.8254 46.4728 75.8254 46.4728 73.329V72.6818C49.5795 72.0492 53.0763 70.0199 53.0763 66.3654C53.0763 62.813 49.2322 61.2849 46.4728 60.3944V53.1631V52.5353C47.9667 53.2312 49.3892 54.1704 49.3892 56.078C49.3892 58.0975 53.0668 58.1802 53.0668 56.078C53.0668 52.4234 49.5747 50.3893 46.4728 49.7567V49.1046C46.4728 46.6082 42.7667 46.6082 42.7667 49.1046Z" fill="#FF6B09"/>
</g>
<path d="M98.7679 15V1H1V103H98.7679V89" stroke="#FF6B09" stroke-width="2"/>
<defs>
<clipPath id="clip0">
<rect width="41.0625" height="48" fill="white" transform="translate(24.4643 28)"/>
</clipPath>
</defs>
</svg>
